<svg width="34" height="34" viewBox="0 0 34 34" fill="none" xmlns="http://www.w3.org/2000/svg">
  <path d="M21.773 13.2877L13.2877 21.773C12.9978 22.0629 12.517 22.0629 12.227 21.773C11.9371 21.4831 11.9371 21.0022 12.227 20.7123L20.7123 12.227C21.0022 11.9371 21.4831 11.9371 21.773 12.227C22.0629 12.5169 22.0629 12.9978 21.773 13.2877Z" fill="#9ca3af"/>
  <path d="M21.773 21.773C21.4831 22.0629 21.0022 22.0629 20.7123 21.773L12.227 13.2877C11.9371 12.9978 11.9371 12.5169 12.227 12.227C12.517 11.9371 12.9978 11.9371 13.2877 12.227L21.773 20.7123C22.0629 21.0022 22.0629 21.4831 21.773 21.773Z" fill="#9ca3af"/>
</svg>
