<svg width="26" height="26" viewBox="0 0 26 26" fill="none" xmlns="http://www.w3.org/2000/svg">
<path d="M17.5875 9.48949C17.1604 9.48949 16.8062 9.13532 16.8062 8.70824V7.27074C16.8062 6.17699 16.3375 5.11449 15.525 4.3749C14.7021 3.6249 13.6396 3.28115 12.5146 3.38532C10.6396 3.5624 8.99374 5.47907 8.99374 7.47907V8.48949C8.99374 8.91657 8.63958 9.27074 8.21249 9.27074C7.78541 9.27074 7.43124 8.91657 7.43124 8.48949V7.46865C7.43124 4.66657 9.69166 2.08324 12.3687 1.82282C13.9312 1.67699 15.4312 2.16657 16.5771 3.21865C17.7125 4.2499 18.3687 5.72907 18.3687 7.27074V8.70824C18.3687 9.13532 18.0146 9.48949 17.5875 9.48949Z" fill="#292D32"/>
<path d="M16.025 24.1978H9.77499C4.96249 24.1978 4.06665 21.9583 3.83749 19.7812L3.05624 13.5416C2.94165 12.4166 2.89999 10.802 3.99374 9.59367C4.93124 8.552 6.48332 8.052 8.73332 8.052H17.0667C19.3271 8.052 20.8792 8.56242 21.8062 9.59367C22.8896 10.802 22.8583 12.4166 22.7437 13.5208L21.9625 19.7812C21.7333 21.9583 20.8375 24.1978 16.025 24.1978ZM8.73332 9.6145C6.9729 9.6145 5.76457 9.95825 5.14999 10.6458C4.63957 11.2083 4.4729 12.0728 4.60832 13.3645L5.38957 19.6041C5.56665 21.2708 6.02499 22.6458 9.77499 22.6458H16.025C19.775 22.6458 20.2333 21.2812 20.4104 19.6249L21.1917 13.3645C21.3271 12.0937 21.1604 11.2291 20.65 10.6562C20.0354 9.95825 18.8271 9.6145 17.0667 9.6145H8.73332Z" fill="#292D32"/>
<path d="M16.4625 14.198C15.8792 14.198 15.4104 13.7292 15.4104 13.1563C15.4104 12.5834 15.8792 12.1146 16.4521 12.1146C17.025 12.1146 17.4937 12.5834 17.4937 13.1563C17.4937 13.7292 17.0354 14.198 16.4625 14.198Z" fill="#292D32"/>
<path d="M9.1708 14.198C8.58746 14.198 8.11871 13.7292 8.11871 13.1563C8.11871 12.5834 8.58746 12.1146 9.16038 12.1146C9.7333 12.1146 10.202 12.5834 10.202 13.1563C10.202 13.7292 9.74371 14.198 9.1708 14.198Z" fill="#292D32"/>
</svg>
