<svg width="26" height="26" viewBox="0 0 26 26" fill="none" xmlns="http://www.w3.org/2000/svg">
<path d="M20.7938 12.2187H16.5854C14.4917 12.2187 13.4813 11.2916 13.4813 9.37498V4.64581C13.4813 2.72915 14.5021 1.80206 16.5854 1.80206H20.7938C22.8875 1.80206 23.8979 2.72915 23.8979 4.64581V9.36456C23.8979 11.2916 22.8771 12.2187 20.7938 12.2187ZM16.5854 3.36456C15.1896 3.36456 15.0438 3.7604 15.0438 4.64581V9.36456C15.0438 10.2604 15.1896 10.6458 16.5854 10.6458H20.7938C22.1896 10.6458 22.3354 10.25 22.3354 9.36456V4.64581C22.3354 3.74998 22.1896 3.36456 20.7938 3.36456H16.5854Z" fill="#292D32"/>
<path d="M20.7938 24.1979H16.5854C14.4917 24.1979 13.4813 23.1771 13.4813 21.0938V16.8854C13.4813 14.7917 14.5021 13.7812 16.5854 13.7812H20.7938C22.8875 13.7812 23.8979 14.8021 23.8979 16.8854V21.0938C23.8979 23.1771 22.8771 24.1979 20.7938 24.1979ZM16.5854 15.3437C15.3563 15.3437 15.0438 15.6562 15.0438 16.8854V21.0938C15.0438 22.3229 15.3563 22.6354 16.5854 22.6354H20.7938C22.0229 22.6354 22.3354 22.3229 22.3354 21.0938V16.8854C22.3354 15.6562 22.0229 15.3437 20.7938 15.3437H16.5854Z" fill="#292D32"/>
<path d="M8.81458 12.2187H4.60624C2.51249 12.2187 1.50208 11.2916 1.50208 9.37498V4.64581C1.50208 2.72915 2.52291 1.80206 4.60624 1.80206H8.81458C10.9083 1.80206 11.9187 2.72915 11.9187 4.64581V9.36456C11.9187 11.2916 10.8979 12.2187 8.81458 12.2187ZM4.60624 3.36456C3.21041 3.36456 3.06458 3.7604 3.06458 4.64581V9.36456C3.06458 10.2604 3.21041 10.6458 4.60624 10.6458H8.81458C10.2104 10.6458 10.3562 10.25 10.3562 9.36456V4.64581C10.3562 3.74998 10.2104 3.36456 8.81458 3.36456H4.60624Z" fill="#292D32"/>
<path d="M8.81458 24.1979H4.60624C2.51249 24.1979 1.50208 23.1771 1.50208 21.0938V16.8854C1.50208 14.7917 2.52291 13.7812 4.60624 13.7812H8.81458C10.9083 13.7812 11.9187 14.8021 11.9187 16.8854V21.0938C11.9187 23.1771 10.8979 24.1979 8.81458 24.1979ZM4.60624 15.3437C3.37708 15.3437 3.06458 15.6562 3.06458 16.8854V21.0938C3.06458 22.3229 3.37708 22.6354 4.60624 22.6354H8.81458C10.0437 22.6354 10.3562 22.3229 10.3562 21.0938V16.8854C10.3562 15.6562 10.0437 15.3437 8.81458 15.3437H4.60624Z" fill="#292D32"/>
</svg>
