<svg width="25" height="26" viewBox="0 0 25 26" fill="none" xmlns="http://www.w3.org/2000/svg">
<path d="M18.5313 24.1979H6.46875C3.61459 24.1979 1.30209 21.875 1.30209 19.0208V11.3021C1.30209 9.88543 2.17709 8.10418 3.30209 7.22918L8.91667 2.85418C10.6042 1.54168 13.3021 1.47918 15.0521 2.70835L21.4896 7.21876C22.7292 8.08335 23.6979 9.93751 23.6979 11.4479V19.0313C23.6979 21.875 21.3854 24.1979 18.5313 24.1979ZM9.875 4.08335L4.26042 8.45835C3.52084 9.04168 2.86459 10.3646 2.86459 11.3021V19.0208C2.86459 21.0104 4.47917 22.6354 6.46875 22.6354H18.5313C20.5208 22.6354 22.1354 21.0208 22.1354 19.0313V11.4479C22.1354 10.4479 21.4167 9.06251 20.5938 8.50001L14.1563 3.9896C12.9688 3.15626 11.0104 3.19793 9.875 4.08335Z" fill="#292D32"/>
<path d="M12.5 20.0312C12.0729 20.0312 11.7188 19.6771 11.7188 19.25V16.125C11.7188 15.6979 12.0729 15.3438 12.5 15.3438C12.9271 15.3438 13.2812 15.6979 13.2812 16.125V19.25C13.2812 19.6771 12.9271 20.0312 12.5 20.0312Z" fill="#292D32"/>
</svg>
