<svg width="25" height="26" viewBox="0 0 25 26" fill="none" xmlns="http://www.w3.org/2000/svg">
<path d="M15.6251 24.1979H9.37511C8.00011 24.1979 6.85428 24.0625 5.88553 23.7709C5.53136 23.6667 5.30219 23.3229 5.32303 22.9583C5.58344 19.8438 8.73969 17.3958 12.5001 17.3958C16.2605 17.3958 19.4064 19.8333 19.6772 22.9583C19.7084 23.3333 19.4793 23.6667 19.1147 23.7709C18.1459 24.0625 17.0001 24.1979 15.6251 24.1979ZM7.00011 22.4375C7.68761 22.5729 8.46886 22.6354 9.37511 22.6354H15.6251C16.5314 22.6354 17.3126 22.5729 18.0001 22.4375C17.448 20.4375 15.1668 18.9583 12.5001 18.9583C9.83344 18.9583 7.5522 20.4375 7.00011 22.4375Z" fill="#292D32"/>
<path d="M15.625 2.58325H9.37504C4.16671 2.58325 2.08337 4.66658 2.08337 9.87492V16.1249C2.08337 20.0624 3.27087 22.2187 6.10421 23.0207C6.33337 20.3124 9.11462 18.177 12.5 18.177C15.8855 18.177 18.6667 20.3124 18.8959 23.0207C21.7292 22.2187 22.9167 20.0624 22.9167 16.1249V9.87492C22.9167 4.66658 20.8334 2.58325 15.625 2.58325ZM12.5 15.2603C10.4375 15.2603 8.77087 13.5833 8.77087 11.5208C8.77087 9.45827 10.4375 7.79158 12.5 7.79158C14.5625 7.79158 16.2292 9.45827 16.2292 11.5208C16.2292 13.5833 14.5625 15.2603 12.5 15.2603Z" stroke="#292D32" stroke-width="1.5" stroke-linecap="round" stroke-linejoin="round"/>
<path d="M12.4999 16.0417C10.0103 16.0417 7.9895 14.0105 7.9895 11.5209C7.9895 9.03135 10.0103 7.0105 12.4999 7.0105C14.9895 7.0105 17.0103 9.03135 17.0103 11.5209C17.0103 14.0105 14.9895 16.0417 12.4999 16.0417ZM12.4999 8.573C10.8749 8.573 9.552 9.89593 9.552 11.5209C9.552 13.1563 10.8749 14.4792 12.4999 14.4792C14.1249 14.4792 15.4478 13.1563 15.4478 11.5209C15.4478 9.89593 14.1249 8.573 12.4999 8.573Z" fill="#292D32"/>
</svg>
