<svg width="26" height="26" viewBox="0 0 26 26" fill="none" xmlns="http://www.w3.org/2000/svg">
<path d="M20.5917 14.4166H2.88333C2.45625 14.4166 2.10208 14.0625 2.10208 13.6354C2.10208 13.2083 2.45625 12.8541 2.88333 12.8541H20.5917C21.0187 12.8541 21.3729 13.2083 21.3729 13.6354C21.3729 14.0625 21.0187 14.4166 20.5917 14.4166Z" fill="#292D32"/>
<path d="M16.6541 23.1562H6.82086C3.24795 23.1562 2.10208 22.0208 2.10208 18.4895V11.2083C2.10208 8.40621 2.73752 6.74996 5.96669 6.56246C6.23752 6.55204 6.51878 6.54163 6.82086 6.54163H16.6541C20.2271 6.54163 21.3729 7.67704 21.3729 11.2083V18.6562C21.3312 22.0625 20.1854 23.1562 16.6541 23.1562ZM6.82086 8.10413C6.53961 8.10413 6.27919 8.11454 6.03961 8.12496C4.17503 8.23954 3.66458 8.63538 3.66458 11.2083V18.4895C3.66458 21.1562 4.10211 21.5937 6.82086 21.5937H16.6541C19.3416 21.5937 19.7792 21.177 19.8104 18.6458V11.2083C19.8104 8.54163 19.3729 8.10413 16.6541 8.10413H6.82086V8.10413Z" fill="#292D32"/>
<path d="M20.5917 19.4375C20.3937 19.4375 20.1958 19.3646 20.0604 19.2292C19.9042 19.0833 19.8104 18.875 19.8104 18.6562V11.2083C19.8104 8.54167 19.3729 8.10417 16.6541 8.10417H6.82086C6.53961 8.10417 6.2792 8.11458 6.03961 8.125C5.83128 8.13542 5.62289 8.05208 5.46664 7.90625C5.31039 7.76042 5.22708 7.55208 5.22708 7.33333C5.26875 3.9375 6.41461 2.84375 9.94586 2.84375H19.7791C23.3521 2.84375 24.4979 3.97917 24.4979 7.51042V14.7917C24.4979 17.5938 23.8625 19.25 20.6333 19.4375C20.6229 19.4375 20.6021 19.4375 20.5917 19.4375ZM6.82086 6.54167H16.6541C20.2271 6.54167 21.3729 7.67708 21.3729 11.2083V17.7917C22.5812 17.5729 22.9354 16.9479 22.9354 14.7917V7.51042C22.9354 4.84375 22.4979 4.40625 19.7791 4.40625H9.94586C7.57086 4.40625 6.95628 4.72917 6.82086 6.54167Z" fill="#292D32"/>
<path d="M8.05028 19.8333H6.25858C5.83149 19.8333 5.47733 19.4791 5.47733 19.0521C5.47733 18.625 5.83149 18.2708 6.25858 18.2708H8.05028C8.47736 18.2708 8.83153 18.625 8.83153 19.0521C8.83153 19.4791 8.48778 19.8333 8.05028 19.8333Z" fill="#292D32"/>
<path d="M13.8728 19.8333H10.2894C9.86235 19.8333 9.50818 19.4791 9.50818 19.0521C9.50818 18.625 9.86235 18.2708 10.2894 18.2708H13.8728C14.2998 18.2708 14.654 18.625 14.654 19.0521C14.654 19.4791 14.3103 19.8333 13.8728 19.8333Z" fill="#292D32"/>
</svg>
